:SAMPLES-PER-SECOND 30
:FULLY-SPECIFIED
:DEGREES
424
root  10.6383 33.4703 -47.3645 50.2934 -76.5819 -14.3902
LeftUpLeg  -46.7556 8.41427 5.98735
LeftLeg  33.6737 11.4858 6.55196
LeftFoot  -12.5637 -0.362833 -3.29519
LeftToes  18.5293 1.85109e-006 5.31342e-008
Spine  15.6315 5.07727 2.47333
Spine1  28.721 13.5208 -1.38507
RightShoulder  0.995287 14.7301 7.20072
RightArm  -32.9904 17.3932 43.7601
RightForeArm  32.2381 21.518 3.97815
RightHand  1.4726 -13.8695 -11.6878
LeftShoulder1  0.228793 -8.12097 -5.16296
LeftArm  32.4256 -3.7356 -46.519
LeftForeArm  121.134 -79.0548 -112.615
LeftHand  -1.59438 -12.6858 13.9074
HEad  -44.9507 44.0372 -32.3864
RightUpLeg  -50.6218 -5.5336 2.59028
RightLeg  27.7795 27.1118 11.5328
RightFoot  3.30896 -0.0427139 1.85587
RightToes  -38.5601 -0.207084 -0.306845
425
root  10.5343 33.489 -46.7736 51.4525 -77.0609 -16.9252
LeftUpLeg  -45.5622 8.02018 5.29405
LeftLeg  35.3048 13.4652 8.15522
LeftFoot  -13.3701 -0.477248 -4.07009
LeftToes  17.713 1.85109e-006 5.31342e-008
Spine  15.0435 4.73696 2.09695
Spine1  27.7456 12.2321 -0.991664
RightShoulder  0.968696 14.3767 7.57326
RightArm  -32.2345 15.1825 46.582
RightForeArm  33.0201 21.4594 3.96562
RightHand  1.4004 -13.918 -11.0606
LeftShoulder1  0.233892 -7.64463 -5.41342
LeftArm  31.9445 -4.01124 -46.1915
LeftForeArm  121.368 -79.0851 -112.223
LeftHand  -1.53021 -12.8356 13.1785
HEad  -45.0287 44.6184 -32.2265
RightUpLeg  -48.7861 -6.06909 2.05877
RightLeg  27.4581 28.1423 11.752
RightFoot  3.47078 -0.050138 2.03188
RightToes  -39.9544 -0.218119 -0.314864
426
root  10.4299 33.4878 -46.0968 52.6473 -77.2964 -19.3544
LeftUpLeg  -44.5662 7.83034 4.27864
LeftLeg  36.9764 14.949 9.61078
LeftFoot  -14.4878 -0.622466 -4.89421
LeftToes  17.5492 1.85109e-006 5.31342e-008
Spine  14.2937 4.21595 1.80185
Spine1  26.4682 10.556 -0.439251
RightShoulder  0.910958 13.787 7.77861
RightArm  -31.0805 12.75 49.2251
RightForeArm  32.7358 21.7811 4.03161
RightHand  1.37272 -13.7242 -10.9948
LeftShoulder1  0.240415 -7.00668 -5.94558
LeftArm  30.9059 -4.20898 -46.1424
LeftForeArm  120.042 -79.2174 -110.407
LeftHand  -1.43295 -12.7811 12.3786
HEad  -44.92 45.4203 -32.3272
RightUpLeg  -47.1153 -7.31635 1.80293
RightLeg  27.2761 29.7589 12.2475
RightFoot  3.72975 -0.0635389 2.32838
RightToes  -42.505 -0.238797 -0.328831
427
root  10.341 33.4645 -45.3226 53.7343 -77.0955 -21.6159
LeftUpLeg  -43.6997 7.86122 3.01545
LeftLeg  38.6091 15.2609 10.4103
LeftFoot  -15.982 -0.777384 -5.53347
LeftToes  17.9005 1.85109e-006 5.31342e-008
Spine  13.5084 3.57564 1.63883
Spine1  25.1277 8.63873 0.323544
RightShoulder  0.825739 13.0601 7.94918
RightArm  -30.5218 10.109 51.5006
RightForeArm  32.0887 22.5046 4.18112
RightHand  1.39405 -13.9144 -11.012
LeftShoulder1  0.243344 -6.2494 -6.11256
LeftArm  29.4933 -4.83999 -46.9184
LeftForeArm  115.886 -79.4996 -105.691
LeftHand  -1.30893 -12.4804 11.5642
HEad  -44.989 46.3446 -32.1819
RightUpLeg  -45.5287 -8.92629 1.60787
RightLeg  27.2579 31.3031 12.7927
RightFoot  3.77202 -0.0696381 2.49164
RightToes  -44.4437 -0.254919 -0.338823
428
root  10.2538 33.416 -44.4314 54.2974 -76.2952 -23.3346
LeftUpLeg  -42.6726 7.94421 1.56279
LeftLeg  39.9341 14.8992 10.6724
LeftFoot  -17.6337 -0.927604 -5.97504
LeftToes  17.1564 1.85109e-006 5.31342e-008
Spine  12.8347 2.7584 1.73147
Spine1  24.0061 6.34461 1.51339
RightShoulder  0.716447 12.2487 7.88107
RightArm  -30.868 7.78489 53.1545
RightForeArm  31.5045 23.1409 4.31395
RightHand  1.37098 -13.645 -11.0464
LeftShoulder1  0.244132 -5.91591 -6.13324
LeftArm  26.7533 -5.69799 -48.3454
LeftForeArm  109.123 -79.7881 -98.072
LeftHand  -1.17751 -11.9844 10.8188
HEad  -45.5204 46.8908 -32.341
RightUpLeg  -43.6878 -10.6493 1.29924
RightLeg  26.757 32.4415 12.8926
RightFoot  3.95095 -0.0785114 2.69412
RightToes  -47.3628 -0.279807 -0.352826
429
root  10.2098 33.3594 -43.4082 53.2319 -74.6475 -22.9773
LeftUpLeg  -41.6355 7.31014 0.203638
LeftLeg  40.0853 16.328 11.7064
LeftFoot  -18.3437 -1.09665 -6.78434
LeftToes  14.0629 1.85109e-006 5.31342e-008
Spine  11.9874 1.65008 2.04408
Spine1  22.4826 3.55614 2.88386
RightShoulder  0.604271 11.4926 7.9172
RightArm  -32.1935 5.2138 54.3092
RightForeArm  31.2967 23.8939 4.47251
RightHand  1.35007 -13.4843 -11.0078
LeftShoulder1  0.244451 -5.5368 -6.05207
LeftArm  23.993 -6.71065 -50.0813
LeftForeArm  100.287 -79.8912 -89.2073
LeftHand  -1.08713 -10.9891 10.9023
HEad  -46.3148 47.6352 -32.7649
RightUpLeg  -42.2216 -13.3262 1.10482
RightLeg  26.3257 33.4895 12.9838
RightFoot  4.2552 -0.096995 2.98745
RightToes  -50.3812 -0.306258 -0.365952
430
root  10.1138 33.3308 -42.3782 54.2152 -74.0176 -24.8731
LeftUpLeg  -39.586 7.85254 -0.89395
LeftLeg  38.5707 15.7913 10.7402
LeftFoot  -19.657 -1.18386 -6.8257
LeftToes  14.1136 1.85109e-006 5.31342e-008
Spine  11.2001 0.80057 2.21315
Spine1  20.9761 1.313 4.05108
RightShoulder  0.489778 10.9682 7.78282
RightArm  -34.1621 2.52208 55.1895
RightForeArm  30.8846 24.7798 4.66165
RightHand  1.3787 -13.477 -11.2538
LeftShoulder1  0.245501 -5.42387 -6.27278
LeftArm  20.1301 -7.33734 -51.1755
LeftForeArm  92.7101 -79.7728 -80.9819
LeftHand  -0.922927 -10.6325 9.52997
HEad  -46.6745 48.598 -33.3617
RightUpLeg  -40.2701 -12.59 -0.600837
RightLeg  25.0641 31.8306 11.6865
RightFoot  4.91658 -0.121069 3.19657
RightToes  -53.8147 -0.337138 -0.379167
431
root  9.98967 33.3034 -41.2558 52.4778 -73.0327 -24.1928
LeftUpLeg  -37.0529 7.15249 -1.50616
LeftLeg  37.021 14.3391 9.24901
LeftFoot  -19.2125 -1.00124 -5.91069
LeftToes  7.98337 1.85109e-006 5.31342e-008
Spine  10.5563 -0.139407 2.39467
Spine1  19.6894 -1.03819 5.12102
RightShoulder  0.370072 9.93784 7.92782
RightArm  -36.0849 0.201838 55.6693
RightForeArm  30.0859 25.5717 4.83333
RightHand  1.44191 -13.5655 -11.7034
LeftShoulder1  0.243072 -5.32278 -6.21419
LeftArm  16.1895 -8.64893 -52.112
LeftForeArm  87.2505 -79.5182 -74.3148
LeftHand  -0.789029 -9.9112 8.71702
HEad  -46.5045 49.1052 -33.2014
RightUpLeg  -38.1058 -10.7627 -3.15899
RightLeg  24.1701 26.5967 9.5091
RightFoot  5.5259 -0.119637 2.8558
RightToes  -57.6363 -0.372368 -0.39167
432
root  9.90059 33.3067 -40.0417 48.622 -71.5928 -21.2935
LeftUpLeg  -34.4396 6.023 -2.47879
LeftLeg  35.1761 12.074 7.29846
LeftFoot  -18.6049 -0.7683 -4.68794
LeftToes  4.26153 1.85109e-006 5.31342e-008
Spine  10.0294 -1.19003 2.63649
Spine1  18.5806 -3.53001 6.16508
RightShoulder  0.264596 9.17199 7.71375
RightArm  -38.3075 -2.37647 55.9027
RightForeArm  29.1137 26.6981 5.08147
RightHand  1.57938 -14.0756 -12.3656
LeftShoulder1  0.239089 -5.06083 -6.03311
LeftArm  13.0626 -10.9457 -52.684
LeftForeArm  80.5861 -79.0697 -67.2145
LeftHand  -0.693829 -8.67114 8.76938
HEad  -46.3005 49.2378 -33.0424
RightUpLeg  -37.229 -9.19857 -5.27913
RightLeg  26.2956 16.8828 6.89884
RightFoot  6.71489 -0.0995312 2.07379
RightToes  -61.5842 -0.409553 -0.402091
